{
    "asset": {
        "version": "1.0",
        "generator": "Open Asset Import Library (assimp v4.1.0)"
    },
    "accessors": {
        "mesh_accessor": {
            "bufferView": "mesh_view",
            "byteOffset": 0,
            "byteStride": 0,
            "componentType": 5126,
            "count": 65535,
            "type": "VEC3",
            "max": [
                57.90264892578125,
                19.3906307220459,
                11.970800399780274
            ],
            "min": [
                -59.88357925415039,
                -31.646520614624025,
                -75.0466537475586
            ]
        },
        "mesh_accessor_0": {
            "bufferView": "mesh_view_0",
            "byteOffset": 0,
            "byteStride": 0,
            "componentType": 5126,
            "count": 65535,
            "type": "VEC3",
            "max": [
                0.54244464635849,
                0.9999697804450989,
                0.48469653725624087
            ],
            "min": [
                -0.5058984756469727,
                -0.9516701102256775,
                -0.42652368545532229
            ]
        },
        "mesh_accessor_1": {
            "bufferView": "mesh_view_1",
            "byteOffset": 0,
            "byteStride": 0,
            "componentType": 5123,
            "count": 65535,
            "type": "SCALAR",
            "max": [
                65534.0
            ],
            "min": [
                0.0
            ]
        },
        "mesh_0_accessor": {
            "bufferView": "mesh_0_view",
            "byteOffset": 0,
            "byteStride": 0,
            "componentType": 5126,
            "count": 64425,
            "type": "VEC3",
            "max": [
                25.74698257446289,
                16.60657501220703,
                2.922339916229248
            ],
            "min": [
                -60.890804290771487,
                -15.79008960723877,
                -75.04646301269531
            ]
        },
        "mesh_0_accessor_0": {
            "bufferView": "mesh_0_view_0",
            "byteOffset": 0,
            "byteStride": 0,
            "componentType": 5126,
            "count": 64425,
            "type": "VEC3",
            "max": [
                0.020793436095118524,
                -0.7679094076156616,
                0.3781917095184326
            ],
            "min": [
                -0.5292137861251831,
                -0.9999949336051941,
                -0.44323596358299258
            ]
        },
        "mesh_0_accessor_1": {
            "bufferView": "mesh_0_view_1",
            "byteOffset": 0,
            "byteStride": 0,
            "componentType": 5123,
            "count": 64425,
            "type": "SCALAR",
            "max": [
                64424.0
            ],
            "min": [
                0.0
            ]
        },
        "mesh_1_accessor": {
            "bufferView": "mesh_1_view",
            "byteOffset": 0,
            "byteStride": 0,
            "componentType": 5126,
            "count": 65535,
            "type": "VEC3",
            "max": [
                66.85738372802735,
                21.208480834960939,
                13.701189994812012
            ],
            "min": [
                -64.23636627197266,
                -34.66999053955078,
                -79.9354476928711
            ]
        },
        "mesh_1_accessor_0": {
            "bufferView": "mesh_1_view_0",
            "byteOffset": 0,
            "byteStride": 0,
            "componentType": 5126,
            "count": 65535,
            "type": "VEC3",
            "max": [
                0.9996287822723389,
                0.9999864101409912,
                0.99977046251297
            ],
            "min": [
                -0.9986251592636108,
                -0.9998891949653626,
                -0.9990420341491699
            ]
        },
        "mesh_1_accessor_1": {
            "bufferView": "mesh_1_view_1",
            "byteOffset": 0,
            "byteStride": 0,
            "componentType": 5123,
            "count": 65535,
            "type": "SCALAR",
            "max": [
                65534.0
            ],
            "min": [
                0.0
            ]
        },
        "mesh_2_accessor": {
            "bufferView": "mesh_2_view",
            "byteOffset": 0,
            "byteStride": 0,
            "componentType": 5126,
            "count": 64425,
            "type": "VEC3",
            "max": [
                66.8414535522461,
                28.86659049987793,
                13.57526969909668
            ],
            "min": [
                -64.16050720214844,
                -34.6331901550293,
                -82.0
            ]
        },
        "mesh_2_accessor_0": {
            "bufferView": "mesh_2_view_0",
            "byteOffset": 0,
            "byteStride": 0,
            "componentType": 5126,
            "count": 64425,
            "type": "VEC3",
            "max": [
                0.9999845623970032,
                0.9999976754188538,
                0.9998510479927063
            ],
            "min": [
                -0.9999008178710938,
                -0.9999896883964539,
                -1.0
            ]
        },
        "mesh_2_accessor_1": {
            "bufferView": "mesh_2_view_1",
            "byteOffset": 0,
            "byteStride": 0,
            "componentType": 5123,
            "count": 64425,
            "type": "SCALAR",
            "max": [
                64424.0
            ],
            "min": [
                0.0
            ]
        }
    },
    "buffers": {
        "../../download/krgjvhi7wyob/krgjvhi7wyob": {
            "byteLength": 6757926,
            "type": "arraybuffer",
            "uri": "../../download/krgjvhi7wyob/krgjvhi7wyob.bin"
        }
    },
    "bufferViews": {
        "mesh_view": {
            "buffer": "../../download/krgjvhi7wyob/krgjvhi7wyob",
            "byteOffset": 0,
            "byteLength": 786420,
            "target": 34962
        },
        "mesh_view_0": {
            "buffer": "../../download/krgjvhi7wyob/krgjvhi7wyob",
            "byteOffset": 786420,
            "byteLength": 786420,
            "target": 34962
        },
        "mesh_view_1": {
            "buffer": "../../download/krgjvhi7wyob/krgjvhi7wyob",
            "byteOffset": 1572840,
            "byteLength": 131070,
            "target": 34963
        },
        "mesh_0_view": {
            "buffer": "../../download/krgjvhi7wyob/krgjvhi7wyob",
            "byteOffset": 1703912,
            "byteLength": 773100,
            "target": 34962
        },
        "mesh_0_view_0": {
            "buffer": "../../download/krgjvhi7wyob/krgjvhi7wyob",
            "byteOffset": 2477012,
            "byteLength": 773100,
            "target": 34962
        },
        "mesh_0_view_1": {
            "buffer": "../../download/krgjvhi7wyob/krgjvhi7wyob",
            "byteOffset": 3250112,
            "byteLength": 128850,
            "target": 34963
        },
        "mesh_1_view": {
            "buffer": "../../download/krgjvhi7wyob/krgjvhi7wyob",
            "byteOffset": 3378964,
            "byteLength": 786420,
            "target": 34962
        },
        "mesh_1_view_0": {
            "buffer": "../../download/krgjvhi7wyob/krgjvhi7wyob",
            "byteOffset": 4165384,
            "byteLength": 786420,
            "target": 34962
        },
        "mesh_1_view_1": {
            "buffer": "../../download/krgjvhi7wyob/krgjvhi7wyob",
            "byteOffset": 4951804,
            "byteLength": 131070,
            "target": 34963
        },
        "mesh_2_view": {
            "buffer": "../../download/krgjvhi7wyob/krgjvhi7wyob",
            "byteOffset": 5082876,
            "byteLength": 773100,
            "target": 34962
        },
        "mesh_2_view_0": {
            "buffer": "../../download/krgjvhi7wyob/krgjvhi7wyob",
            "byteOffset": 5855976,
            "byteLength": 773100,
            "target": 34962
        },
        "mesh_2_view_1": {
            "buffer": "../../download/krgjvhi7wyob/krgjvhi7wyob",
            "byteOffset": 6629076,
            "byteLength": 128850,
            "target": 34963
        }
    },
    "materials": {
        "DefaultMaterial": {
            "values": {
                "ambient": [
                    1.0,
                    1.0,
                    1.0,
                    1.0
                ],
                "diffuse": [
                    1.0,
                    1.0,
                    1.0,
                    1.0
                ],
                "specular": [
                    1.0,
                    1.0,
                    1.0,
                    1.0
                ],
                "emission": [
                    0.0,
                    0.0,
                    0.0,
                    1.0
                ],
                "shininess": 0.0
            }
        }
    },
    "meshes": {
        "mesh": {
            "name": "",
            "primitives": [
                {
                    "mode": 4,
                    "material": "DefaultMaterial",
                    "indices": "mesh_accessor_1",
                    "attributes": {
                        "POSITION": "mesh_accessor",
                        "NORMAL": "mesh_accessor_0"
                    }
                }
            ]
        },
        "mesh_0": {
            "name": "",
            "primitives": [
                {
                    "mode": 4,
                    "material": "DefaultMaterial",
                    "indices": "mesh_0_accessor_1",
                    "attributes": {
                        "POSITION": "mesh_0_accessor",
                        "NORMAL": "mesh_0_accessor_0"
                    }
                }
            ]
        },
        "mesh_1": {
            "name": "",
            "primitives": [
                {
                    "mode": 4,
                    "material": "DefaultMaterial",
                    "indices": "mesh_1_accessor_1",
                    "attributes": {
                        "POSITION": "mesh_1_accessor",
                        "NORMAL": "mesh_1_accessor_0"
                    }
                }
            ]
        },
        "mesh_2": {
            "name": "",
            "primitives": [
                {
                    "mode": 4,
                    "material": "DefaultMaterial",
                    "indices": "mesh_2_accessor_1",
                    "attributes": {
                        "POSITION": "mesh_2_accessor",
                        "NORMAL": "mesh_2_accessor_0"
                    }
                }
            ]
        }
    },
    "nodes": {
        "<STL_BINARY>": {
            "meshes": [
                "mesh",
                "mesh_0",
                "mesh_1",
                "mesh_2"
            ]
        }
    },
    "scenes": {
        "defaultScene": {
            "nodes": [
                "<STL_BINARY>"
            ]
        }
    },
    "scene": "defaultScene"
}